<svg viewBox="0 0 1062 1974" version="1.1" xmlns="http://www.w3.org/2000/svg">
<path d="M 3.73 742.87
  C 18.84 632.72 99.88 536.74 199.63 492.01
  C 249.36 469.71 303.17 466.64 356.81 466.34
  Q 509.62 465.48 662.44 465.83
  C 678.99 465.86 700.01 467.30 710.79 451.36
  C 717.88 440.88 716.51 428.79 716.28 417.07
  Q 716.03 404.58 716.03 402.43
  Q 715.83 275.37 716.29 148.32
  Q 716.33 135.10 716.94 128.34
  C 722.35 67.78 758.52 14.81 822.12 5.61
  Q 841.13 2.86 861.25 2.81
  Q 905.35 2.69 928.56 2.69
  C 984.81 2.68 1036.99 36.59 1052.83 91.78
  C 1059.47 114.92 1060.34 140.83 1060.35 164.75
  Q 1060.50 673.24 1060.50 1181.73
  C 1060.50 1183.40 1059.87 1185.50 1059.78 1187.50
  C 1057.87 1228.58 1055.69 1269.81 1055.81 1310.94
  C 1056.15 1426.17 1056.28 1541.33 1054.75 1656.56
  C 1054.00 1712.69 1040.62 1764.78 1011.45 1812.18
  Q 987.01 1851.89 950.68 1886.93
  C 901.59 1934.28 838.72 1966.81 770.51 1970.78
  C 751.56 1971.89 729.57 1972.49 709.00 1972.49
  Q 524.79 1972.53 340.57 1972.47
  Q 327.07 1972.47 320.59 1971.88
  C 256.51 1966.05 206.30 1921.58 200.76 1855.75
  Q 196.16 1801.14 200.59 1747.70
  Q 201.62 1735.26 203.36 1727.91
  C 216.06 1674.17 268.60 1637.81 321.49 1633.45
  C 327.23 1632.98 333.05 1632.45 338.85 1632.43
  C 448.30 1631.91 557.74 1631.96 667.19 1632.00
  C 700.64 1632.02 716.19 1616.33 716.76 1582.99
  Q 717.00 1568.63 717.46 1554.25
  C 717.84 1542.43 715.96 1526.22 703.22 1521.58
  Q 699.38 1520.18 686.62 1520.20
  Q 430.53 1520.57 329.56 1519.95
  C 287.71 1519.69 241.07 1511.23 200.57 1495.46
  C 155.38 1477.85 119.14 1447.44 85.98 1413.02
  Q 15.90 1340.29 4.01 1239.75
  C 2.11 1223.66 1.50 1207.64 1.50 1190.26
  Q 1.49 988.01 1.51 785.77
  Q 1.51 776.74 2.01 767.38
  C 2.45 759.22 2.67 750.63 3.73 742.87
  Z
  M 371.96 1162.90
  Q 381.83 1168.29 392.82 1168.45
  Q 501.21 1169.93 664.50 1168.36
  C 684.53 1168.16 704.01 1163.49 713.67 1144.38
  C 714.59 1142.54 715.71 1138.86 715.71 1137.25
  C 715.92 1053.62 715.27 970.00 715.25 886.37
  C 715.25 885.77 715.66 884.75 715.68 884.19
  Q 716.59 860.91 714.99 845.00
  C 712.61 821.38 688.45 812.48 667.98 812.22
  C 592.84 811.26 517.64 811.70 442.50 811.77
  C 426.84 811.78 411.16 811.99 395.52 812.72
  C 372.35 813.79 356.31 822.73 350.38 846.04
  Q 348.25 854.40 348.26 861.07
  C 348.36 945.45 347.70 1029.84 348.17 1114.22
  C 348.28 1135.16 352.15 1152.09 371.96 1162.90
  Z" fill="#000000"></path>
</svg>
