<?xml version="1.0" encoding="UTF-8" standalone="no"?>
<!DOCTYPE svg PUBLIC "-//W3C//DTD SVG 1.1//EN" "http://www.w3.org/Graphics/SVG/1.1/DTD/svg11.dtd">
<svg xmlns="http://www.w3.org/2000/svg" version="1.1" viewBox="0 0 371 839">
<path fill="#dgdgdg" d="
  M 361.82 564.55
  C 361.71 564.66 360.83 586.81 360.74 589.00
  Q 360.35 598.75 360.41 609.00
  Q 360.77 666.91 360.05 724.81
  Q 359.66 756.87 341.46 782.44
  C 323.88 807.16 297.48 827.32 266.25 829.75
  C 257.04 830.47 243.15 830.49 231.25 830.50
  Q 176.58 830.51 121.91 830.49
  C 118.24 830.48 112.52 830.47 108.66 829.75
  C 88.42 825.95 74.04 811.67 72.37 790.98
  Q 70.72 770.45 72.57 752.32
  C 74.54 733.11 92.13 719.17 110.27 716.52
  Q 115.01 715.83 125.50 715.81
  Q 176.19 715.74 226.88 715.76
  C 235.09 715.76 241.60 715.11 244.91 707.44
  Q 246.33 704.15 246.27 696.36
  C 246.22 690.31 248.56 677.98 238.74 677.99
  Q 179.02 678.03 119.32 677.97
  C 100.32 677.96 81.09 674.45 64.70 666.29
  C 53.07 660.50 42.57 651.08 33.38 641.45
  Q 5.34 612.05 5.32 569.45
  Q 5.23 423.75 5.26 278.07
  Q 5.26 264.36 6.10 258.11
  C 11.18 219.99 42.01 184.92 77.73 171.75
  C 93.67 165.87 110.81 165.48 128.50 165.39
  Q 180.01 165.13 231.53 165.27
  C 237.49 165.29 242.96 164.00 245.27 158.53
  C 246.69 155.19 246.01 149.40 246.00 146.38
  Q 245.98 101.85 246.03 57.31
  C 246.05 37.27 254.97 18.38 275.00 11.61
  Q 280.58 9.73 290.72 9.27
  Q 305.64 8.59 320.58 9.30
  C 335.89 10.03 350.49 19.03 357.11 32.95
  C 361.87 42.97 361.99 56.79 361.99 68.75
  Q 362.01 316.49 362.00 564.22
  A 0.55 0.27 -35.4 0 1 361.82 564.55
  Z
  M 122.00 543.02
  C 122.00 553.05 128.24 559.45 138.31 559.54
  Q 182.52 559.94 226.73 559.55
  C 234.42 559.48 241.09 558.56 244.84 552.10
  Q 245.94 550.20 245.94 548.00
  Q 245.61 435.81 245.79 324.38
  C 245.80 317.15 246.29 304.19 245.74 294.06
  C 245.23 284.48 236.60 281.94 228.12 281.89
  Q 184.68 281.62 141.25 281.89
  C 127.68 281.97 122.01 286.95 122.01 300.68
  Q 121.99 421.85 122.00 543.02
  Z"
/>
</svg>
